<?xml version="1.0" encoding="utf-8"?>
<svg xmlns="http://www.w3.org/2000/svg" height="256" width="256" viewBox="0 0 256 256">
  <g>
    <path id="path1" transform="rotate(0,128,128) translate(0,35.5999984741211) scale(8,8)  " fill="#FF7004" d="M4.6999817,3.399993C7.1000061,3.399993,9,5.1000047,9.3999939,7.399992L9.3999939,7.4999981 9.3999939,7.6000042 9.3999939,8.1000042 9.3999939,8.6000042 9.3999939,8.7000104 9.3999939,13.200009 22.600006,13.200009 22.600006,8.7000104 22.600006,8.6000042 22.600006,8.1000042 22.600006,7.6000042 22.600006,7.4999981 22.600006,7.399992C22.899994,5.1000047 24.899994,3.399993 27.299988,3.399993 29.899994,3.399993 32,5.4999986 32,8.1000042 32,10.499997 30.100006,12.499997 27.799988,12.799985L27.600006,12.799985 27.600006,20.799983 25.399994,20.799983 25.399994,23.100001 21,23.100001 21,20.700007 11,20.700007 11,23.100001 6.6000061,23.100001 6.6000061,20.799983 4.5,20.799983 4.5,12.799985 4.2999878,12.799985C1.8999939,12.600003 0,10.600003 0,8.1000042 0,5.4999986 2.1000061,3.399993 4.6999817,3.399993z M15.799988,0C18.799988,-5.2452378E-08 22.299988,0.60000592 26.100006,2.4999996 26.100006,2.4999993 21.899994,3.2000113 21.199982,7.7000104L21.199982,7.899992 21.199982,11.899991 10.699982,11.899991 10.699982,7.899992C10.699982,7.899992 10.699982,3.399993 5.8999939,2.6000057 5.8999939,2.6000054 9.6999817,-5.2452378E-08 15.799988,0z" />
  </g>
</svg>

